<?xml version="1.0" encoding="iso-8859-1"?>
<!-- Uploaded to: SVG Repo, www.svgrepo.com, Generator: SVG Repo Mixer Tools -->
<svg height="800px" width="800px" version="1.1" id="Layer_1" xmlns="http://www.w3.org/2000/svg" xmlns:xlink="http://www.w3.org/1999/xlink" 
	 viewBox="0 0 512 512" xml:space="preserve">
<path style="fill:#003C61;" d="M437.02,74.98C388.667,26.628,324.25,0,255.87,0S123.333,26.628,74.98,74.98
	C26.628,123.333,0,187.62,0,256s26.628,132.667,74.98,181.02C123.333,485.372,187.49,512,255.87,512s132.797-26.628,181.15-74.98
	C485.372,388.667,512,324.38,512,256S485.372,123.333,437.02,74.98z"/>
<path style="fill:#0066A6;" d="M255.87,0.003C187.58,0.067,123.275,26.686,74.98,74.98C26.628,123.333,0,187.62,0,256
	s26.628,132.667,74.98,181.02c48.295,48.294,112.6,74.915,180.89,74.978V0.003z"/>
<path style="fill:#005A95;" d="M398.454,113.546c-38.051-38.052-88.772-59.007-142.584-59.007s-104.273,20.955-142.325,59.007
	C75.494,151.597,54.539,202.188,54.539,256s20.955,104.403,59.007,142.454c38.05,38.052,88.511,59.007,142.324,59.007
	s104.534-20.955,142.584-59.007c38.052-38.051,59.007-88.642,59.007-142.454S436.506,151.597,398.454,113.546z"/>
<path style="fill:#31AAEF;" d="M255.87,54.542c-53.721,0.063-104.331,21.01-142.325,59.004
	C75.494,151.597,54.539,202.188,54.539,256s20.955,104.403,59.006,142.454c37.994,37.993,88.603,58.94,142.325,59.004V54.542z"/>
<path style="fill:#79C6BF;" d="M351.134,226.757l-122.387-70.716c-5.168-2.986-10.937-4.479-16.706-4.479
	c-5.763,0-11.527,1.49-16.691,4.471c-10.335,5.964-16.7,16.988-16.7,28.92v141.432c0,11.932,6.367,22.957,16.7,28.92
	c5.165,2.98,10.928,4.471,16.691,4.471c5.769,0,11.537-1.493,16.706-4.479l122.387-70.716c10.326-5.966,16.686-16.986,16.686-28.912
	C367.82,243.743,361.46,232.723,351.134,226.757z"/>
<path style="fill:#E4F3F6;" d="M255.87,171.713l-27.122-15.672c-5.168-2.986-10.937-4.479-16.706-4.479
	c-5.763,0-11.527,1.49-16.691,4.471c-10.335,5.964-16.7,16.988-16.7,28.92v141.432c0,11.932,6.367,22.957,16.7,28.92
	c5.165,2.98,10.928,4.471,16.691,4.471c5.769,0,11.537-1.493,16.706-4.479l27.122-15.672V171.713z"/>
</svg>